<?xml version="1.0" encoding="utf-8"?>
<!-- Generator: Adobe Illustrator 17.1.0, SVG Export Plug-In . SVG Version: 6.00 Build 0)  -->
<!DOCTYPE svg PUBLIC "-//W3C//DTD SVG 1.1//EN" "http://www.w3.org/Graphics/SVG/1.1/DTD/svg11.dtd" [
	<!ENTITY ns_extend "http://ns.adobe.com/Extensibility/1.0/">
	<!ENTITY ns_ai "http://ns.adobe.com/AdobeIllustrator/10.0/">
	<!ENTITY ns_graphs "http://ns.adobe.com/Graphs/1.0/">
	<!ENTITY ns_vars "http://ns.adobe.com/Variables/1.0/">
	<!ENTITY ns_imrep "http://ns.adobe.com/ImageReplacement/1.0/">
	<!ENTITY ns_sfw "http://ns.adobe.com/SaveForWeb/1.0/">
	<!ENTITY ns_custom "http://ns.adobe.com/GenericCustomNamespace/1.0/">
	<!ENTITY ns_adobe_xpath "http://ns.adobe.com/XPath/1.0/">
]>
<svg version="1.1" id="Layer_1" xmlns:x="&ns_extend;" xmlns:i="&ns_ai;" xmlns:graph="&ns_graphs;"
	 xmlns="http://www.w3.org/2000/svg" xmlns:xlink="http://www.w3.org/1999/xlink" x="0px" y="0px" viewBox="148 244 303 271"
	 enable-background="new 148 244 303 271" xml:space="preserve">
<metadata>
	<sfw  xmlns="&ns_sfw;">
		<slices></slices>
		<sliceSourceBounds  width="258.781" height="239.81" bottomLeftOrigin="true" x="173.177" y="292.44"></sliceSourceBounds>
	</sfw>
</metadata>
<g>
	<path fill="#00AEEF" d="M202.71,367.093h25.686c6.893,0,12.5-5.607,12.5-12.5V278.75H364.24v75.843c0,6.893,5.607,12.5,12.5,12.5
		h25.686l-99.858,110.13L202.71,367.093z"/>
	<path fill="#FFFFFF" d="M354.74,288.25v66.343c0,12.131,9.869,22,22,22h4.248l-29.832,32.901l-2.934,3.236l-1.096,1.209
		l-44.557,49.141l-44.557-49.141l-1.096-1.209l-2.934-3.236l-29.833-32.902h4.248c12.131,0,22-9.869,22-22V288.25H354.74
		 M370.74,269.25H234.396c-1.65,0-3,1.35-3,3v82.343c0,1.65-1.35,3-3,3h-44.123c-1.65,0-2.093,1-0.985,2.222l56.617,62.442
		c1.108,1.222,2.922,3.223,4.03,4.445l56.617,62.442c0.554,0.611,1.285,0.917,2.015,0.917c0.73,0,1.461-0.306,2.015-0.917
		l56.617-62.442c1.108-1.222,2.922-3.223,4.03-4.445l56.617-62.442c1.108-1.222,0.665-2.222-0.985-2.222H376.74c-1.65,0-3-1.35-3-3
		V272.25C373.74,270.6,372.39,269.25,370.74,269.25L370.74,269.25z"/>
	<path fill="none" stroke="#F26522" stroke-width="19" stroke-miterlimit="10" d="M376.74,357.593c-1.65,0-3-1.35-3-3V272.25
		c0-1.65-1.35-3-3-3H234.396c-1.65,0-3,1.35-3,3v82.343c0,1.65-1.35,3-3,3h-44.123c-1.65,0-2.093,1-0.985,2.222l56.617,62.442
		c1.108,1.222,2.922,3.223,4.03,4.445l56.617,62.441c1.108,1.222,2.922,1.222,4.03,0l56.617-62.441
		c1.108-1.222,2.922-3.223,4.03-4.445l56.617-62.442c1.108-1.222,0.665-2.222-0.985-2.222H376.74z"/>
	<path fill="none" stroke="#231F20" stroke-width="8" stroke-miterlimit="10" d="M376.74,357.593c-1.65,0-3-1.35-3-3V272.25
		c0-1.65-1.35-3-3-3H234.396c-1.65,0-3,1.35-3,3v82.343c0,1.65-1.35,3-3,3h-44.123c-1.65,0-2.093,1-0.985,2.222l56.617,62.442
		c1.108,1.222,2.922,3.223,4.03,4.445l56.617,62.441c1.108,1.222,2.922,1.222,4.03,0l56.617-62.441
		c1.108-1.222,2.922-3.223,4.03-4.445l56.617-62.442c1.108-1.222,0.665-2.222-0.985-2.222H376.74z"/>
</g>
<text transform="matrix(0.8057 0 0 1 259.1329 332.7916)"><tspan x="0" y="0" fill="#FFFFFF" font-family="'MyriadPro-Semibold'" font-size="20">D</tspan><tspan x="13.66" y="0" fill="#FFFFFF" font-family="'MyriadPro-Semibold'" font-size="20">O</tspan><tspan x="27.68" y="0" fill="#FFFFFF" font-family="'MyriadPro-Semibold'" font-size="20">WN</tspan><tspan x="58.58" y="0" fill="#FFFFFF" font-family="'MyriadPro-Semibold'" font-size="20">L</tspan><tspan x="67.66" y="0" fill="#FFFFFF" font-family="'MyriadPro-Semibold'" font-size="20">O</tspan><tspan x="81.44" y="0" fill="#FFFFFF" font-family="'MyriadPro-Semibold'" font-size="20">AD</tspan><tspan x="27.726" y="38" fill="#FFFFFF" font-family="'MyriadPro-Semibold'" font-size="24">GRID</tspan><tspan x="26.652" y="76" fill="#FFFFFF" font-family="'MyriadPro-Semibold'" font-size="22">HERE </tspan></text>
</svg>
