<?xml version="1.0" encoding="utf-8"?>
<!-- Generator: Adobe Illustrator 17.1.0, SVG Export Plug-In . SVG Version: 6.00 Build 0)  -->
<!DOCTYPE svg PUBLIC "-//W3C//DTD SVG 1.1//EN" "http://www.w3.org/Graphics/SVG/1.1/DTD/svg11.dtd" [
	<!ENTITY ns_extend "http://ns.adobe.com/Extensibility/1.0/">
	<!ENTITY ns_ai "http://ns.adobe.com/AdobeIllustrator/10.0/">
	<!ENTITY ns_graphs "http://ns.adobe.com/Graphs/1.0/">
	<!ENTITY ns_vars "http://ns.adobe.com/Variables/1.0/">
	<!ENTITY ns_imrep "http://ns.adobe.com/ImageReplacement/1.0/">
	<!ENTITY ns_sfw "http://ns.adobe.com/SaveForWeb/1.0/">
	<!ENTITY ns_custom "http://ns.adobe.com/GenericCustomNamespace/1.0/">
	<!ENTITY ns_adobe_xpath "http://ns.adobe.com/XPath/1.0/">
]>
<svg version="1.1" id="Layer_1" xmlns:x="&ns_extend;" xmlns:i="&ns_ai;" xmlns:graph="&ns_graphs;"
	 xmlns="http://www.w3.org/2000/svg" xmlns:xlink="http://www.w3.org/1999/xlink" x="0px" y="0px" viewBox="0 0 1495.18 1364.02"
	 enable-background="new 0 0 1495.18 1364.02" xml:space="preserve">
<metadata>
	<sfw  xmlns="&ns_sfw;">
		<slices></slices>
		<sliceSourceBounds  width="1041.152" height="949.351" bottomLeftOrigin="true" x="234.135" y="-730.882"></sliceSourceBounds>
	</sfw>
</metadata>
<g>
	<g>
		<path stroke="#F7931E" stroke-width="28.2402" stroke-miterlimit="10" d="M708.81,195.651
			c-254.36,0-460.555,206.196-460.555,460.555s206.196,460.555,460.555,460.555s460.555-206.196,460.555-460.555
			S963.163,195.651,708.81,195.651z M708.81,1024.652c-203.488,0-368.446-164.958-368.446-368.446S505.322,287.761,708.81,287.761
			s368.446,164.958,368.446,368.446S912.291,1024.652,708.81,1024.652z"/>
	</g>
	<path fill="#F7931E" stroke="#00CFFF" stroke-width="15.689" stroke-miterlimit="10" d="M708.81,361.477
		c-162.775,0-294.73,131.955-294.73,294.73s131.955,294.73,294.73,294.73s294.73-131.955,294.73-294.73
		S871.585,361.477,708.81,361.477z M708.81,891.991c-130.22,0-235.784-105.564-235.784-235.784S578.59,420.423,708.81,420.423
		s235.784,105.564,235.784,235.784S839.03,891.991,708.81,891.991z"/>
	<path fill="#F7931E" stroke="#00CFFF" stroke-width="21.9646" stroke-miterlimit="10" d="M708.81,508.838
		c-81.391,0-147.368,65.978-147.368,147.368s65.978,147.369,147.369,147.369s147.369-65.978,147.369-147.369
		S790.194,508.838,708.81,508.838z M708.81,774.099c-65.11,0-117.892-52.782-117.892-117.892S643.7,538.315,708.81,538.315
		s117.892,52.782,117.892,117.892S773.92,774.099,708.81,774.099z"/>
	<path fill="none" stroke="#231F20" stroke-width="25.0098" stroke-miterlimit="10" d="M744.248,647.888
		c-2.967-13.37-13.748-24.152-27.119-27.119c-26.531-5.877-49.641,17.232-43.763,43.763c2.967,13.37,13.748,24.152,27.119,27.119
		C727.015,697.528,750.132,674.412,744.248,647.888z M708.81,685.298c-16.064,0-29.092-13.028-29.092-29.092
		s13.028-29.092,29.092-29.092s29.092,13.028,29.092,29.092C737.902,672.271,724.874,685.298,708.81,685.298z"/>
	<path fill="none" stroke="#F26724" stroke-width="25.0098" stroke-miterlimit="10" d="M711.42,655.591
		c-0.217-0.987-1.014-1.784-2.001-2.001c-1.959-0.434-3.659,1.273-3.225,3.225c0.217,0.987,1.014,1.784,2.001,2.001
		C710.153,659.257,711.854,657.55,711.42,655.591z M708.81,658.355c-1.182,0-2.148-0.959-2.148-2.148
		c0-1.182,0.958-2.148,2.148-2.148c1.182,0,2.148,0.959,2.148,2.148C710.951,657.389,709.992,658.355,708.81,658.355z"/>
	<g>
		
			<line fill="none" stroke="#6E6F72" stroke-width="9.4134" stroke-miterlimit="10" x1="767.49" y1="627.423" x2="1206.237" y2="429.029"/>
		<g>
			<polygon fill="#6E6F72" points="793.524,585.765 775.333,623.876 815.962,635.385 719.298,649.21 			"/>
			<polygon fill="#FFFFFF" points="784.681,598.45 728.708,644.956 770.828,625.912 			"/>
		</g>
		<g>
			<path fill="#C0BDBF" d="M1210.099,427.293c11.558-19.017,18.793-40.545,22.081-62.388l-80.02,36.186
				c-2.54,23.012-12.825,44.841-25.607,63.984L1210.099,427.293z"/>
			<path fill="#9D9B9D" d="M1126.547,465.075c22.907,2.799,45.639,10.341,64.963,23.04l79.838-36.102
				c-19.066-12.153-39.405-20.997-61.241-24.726L1126.547,465.075z"/>
			<path fill="#6E6F72" d="M1147.508,403.197c-2.547,23.019-12.825,44.841-25.607,63.984c22.907,2.799,45.632,10.341,64.963,23.04
				l10.74-4.856c-19.08-12.146-39.411-20.997-61.262-24.712c11.565-19.024,18.814-40.552,22.081-62.388L1147.508,403.197z"/>
			<path fill="#6E6F72" d="M1173.389,391.492c-2.533,23.012-12.825,44.841-25.594,63.977c22.907,2.799,45.611,10.355,64.942,23.047
				l10.74-4.856c-19.059-12.153-39.405-20.997-61.241-24.726c11.558-19.017,18.793-40.545,22.067-62.381L1173.389,391.492z"/>
			<path fill="#6E6F72" d="M1199.297,379.773c-2.54,23.012-12.825,44.841-25.593,63.977c22.907,2.799,45.61,10.355,64.942,23.054
				l10.74-4.856c-19.059-12.153-39.405-20.997-61.241-24.726c11.558-19.017,18.793-40.545,22.081-62.388L1199.297,379.773z"/>
			<path fill="#6E6F72" d="M1225.191,368.068c-2.533,23.012-12.818,44.834-25.593,63.977c22.914,2.799,45.625,10.348,64.942,23.054
				l10.747-4.863c-19.059-12.153-39.405-20.997-61.255-24.719c11.565-19.024,18.793-40.545,22.081-62.388L1225.191,368.068z"/>
		</g>
	</g>
</g>
</svg>
