<?xml version="1.0" encoding="utf-8"?>
<!-- Generator: Adobe Illustrator 17.1.0, SVG Export Plug-In . SVG Version: 6.00 Build 0)  -->
<!DOCTYPE svg PUBLIC "-//W3C//DTD SVG 1.1//EN" "http://www.w3.org/Graphics/SVG/1.1/DTD/svg11.dtd" [
	<!ENTITY ns_extend "http://ns.adobe.com/Extensibility/1.0/">
	<!ENTITY ns_ai "http://ns.adobe.com/AdobeIllustrator/10.0/">
	<!ENTITY ns_graphs "http://ns.adobe.com/Graphs/1.0/">
	<!ENTITY ns_vars "http://ns.adobe.com/Variables/1.0/">
	<!ENTITY ns_imrep "http://ns.adobe.com/ImageReplacement/1.0/">
	<!ENTITY ns_sfw "http://ns.adobe.com/SaveForWeb/1.0/">
	<!ENTITY ns_custom "http://ns.adobe.com/GenericCustomNamespace/1.0/">
	<!ENTITY ns_adobe_xpath "http://ns.adobe.com/XPath/1.0/">
]>
<svg version="1.1" id="Layer_1" xmlns:x="&ns_extend;" xmlns:i="&ns_ai;" xmlns:graph="&ns_graphs;"
	 xmlns="http://www.w3.org/2000/svg" xmlns:xlink="http://www.w3.org/1999/xlink" x="0px" y="0px" viewBox="0 0 640 480"
	 enable-background="new 0 0 640 480" xml:space="preserve">
<metadata>
	<sfw  xmlns="&ns_sfw;">
		<slices></slices>
		<sliceSourceBounds  height="525.1" width="604.8" bottomLeftOrigin="true" x="-88.3" y="0.6"></sliceSourceBounds>
	</sfw>
</metadata>
<g id="Layer_1_1_" display="none">
	<rect x="-4.6" y="8.1" display="inline" fill="none" width="44.2" height="44.2"/>
	<rect x="43.6" y="8.1" display="inline" fill="none" width="44.2" height="44.2"/>
	<rect x="91.9" y="8.1" display="inline" fill="none" width="44.2" height="44.2"/>
	<rect x="140.1" y="8.1" display="inline" fill="none" width="44.2" height="44.2"/>
	<rect x="-4.6" y="56.4" display="inline" fill="none" width="44.2" height="44.2"/>
	<rect x="43.6" y="56.4" display="inline" fill="none" width="44.2" height="44.2"/>
	<rect x="91.9" y="56.4" display="inline" fill="none" width="44.2" height="44.2"/>
	<rect x="140.1" y="56.4" display="inline" fill="none" width="44.2" height="44.2"/>
	<rect x="-4.6" y="105.4" display="inline" fill="none" width="44.2" height="43.4"/>
	<rect x="43.6" y="105.4" display="inline" fill="none" width="44.2" height="43.4"/>
	<rect x="91.9" y="105.4" display="inline" fill="none" width="44.2" height="43.4"/>
	<rect x="140.1" y="105.4" display="inline" fill="none" width="44.2" height="43.4"/>
	<rect x="-4.6" y="152.9" display="inline" fill="none" width="44.2" height="44.2"/>
	<rect x="43.6" y="152.9" display="inline" fill="none" width="44.2" height="44.2"/>
	<rect x="91.9" y="152.9" display="inline" fill="none" width="44.2" height="44.2"/>
	<rect x="140.1" y="152.9" display="inline" fill="none" width="44.2" height="44.2"/>
	<g display="inline">
		<line fill="none" stroke="#00A651" x1="183.9" y1="-45.8" x2="183.9" y2="251.8"/>
		<line fill="none" stroke="#00A651" x1="140.5" y1="-45.8" x2="140.5" y2="251.8"/>
		<line fill="none" stroke="#00A651" x1="136.5" y1="-45.8" x2="136.5" y2="251.8"/>
		<line fill="none" stroke="#00A651" x1="92.3" y1="-45.8" x2="92.3" y2="251.8"/>
		<line fill="none" stroke="#00A651" x1="87.4" y1="-45.8" x2="87.4" y2="251.8"/>
		<line fill="none" stroke="#00A651" x1="43.2" y1="-45.8" x2="43.2" y2="251.8"/>
		<line fill="none" stroke="#00A651" x1="39.2" y1="-45.8" x2="39.2" y2="251.8"/>
		<line fill="none" stroke="#00A651" x1="-5" y1="-45.8" x2="-5" y2="251.8"/>
		<line fill="none" stroke="#00A651" x1="-88.3" y1="197.5" x2="279.2" y2="197.5"/>
		<line fill="none" stroke="#00A651" x1="-88.3" y1="153.3" x2="279.2" y2="153.3"/>
		<line fill="none" stroke="#00A651" x1="-88.3" y1="149.3" x2="279.2" y2="149.3"/>
		<line fill="none" stroke="#00A651" x1="-88.3" y1="105" x2="279.2" y2="105"/>
		<line fill="none" stroke="#00A651" x1="-88.3" y1="100.2" x2="279.2" y2="100.2"/>
		<line fill="none" stroke="#00A651" x1="-88.3" y1="56" x2="279.2" y2="56"/>
		<line fill="none" stroke="#00A651" x1="-88.3" y1="51.9" x2="279.2" y2="51.9"/>
		<line fill="none" stroke="#00A651" x1="-88.3" y1="8.5" x2="279.2" y2="8.5"/>
	</g>
</g>
<g id="Layer_2">
	<g>
		<rect x="119.2" y="9.7" fill="#F7931E" width="94.9" height="69.2"/>
		<rect x="118.4" y="234.9" fill="#F7931E" width="396.4" height="66.7"/>
		<rect x="119.2" y="308.1" fill="#00CFFF" width="396.4" height="66.7"/>
		<rect x="225.4" y="9.7" fill="#00CFFF" width="89.3" height="69.2"/>
		<rect x="119.2" y="160.9" fill="#F7931E" width="193.8" height="66.7"/>
		<rect x="323.5" y="160.9" fill="#00CFFF" width="192.2" height="66.7"/>
		<rect x="324.3" y="9.7" fill="#F7931E" width="90.1" height="69.2"/>
		<rect x="119.2" y="86.1" fill="#F7931E" width="126.3" height="66.7"/>
		<rect x="255.9" y="86.1" fill="#00CFFF" width="123.8" height="66.7"/>
		<rect x="390.2" y="86.1" fill="#F7931E" width="125.4" height="66.7"/>
		<rect x="424" y="9.7" fill="#00CFFF" width="91.7" height="69.2"/>
	</g>
	<g>
		<g enable-background="new    ">
			<path d="M193.5,406c3.5-1,6.2-0.5,8,0.8c1.8,1.4,2.7,3.8,2.7,7c0.4,17.6-20.6,41.4-40.9,41.2c-7-0.1-14.9-4.3-15.7-18
				c-1.1-19.1,28.4-40.8,45.5-43.2c4.2-0.6,8.6,5.7,8.6,7.1c0,1.9-3,2.7-4.3,3.1C195.9,404.5,194.7,405.2,193.5,406L193.5,406z
				 M167.6,426c-1.1,0-1.1-1.7-1.2-2.5c-5,5-9.8,12-9.8,19.3c0,3.1,1.3,5.8,4.7,5.8c5,0,12.6-3.7,16.4-6.9
				c11.9-10.1,18.6-20.9,18.8-27.3c0.1-2.1-1.1-4.3-3.4-4.3c-7.8,0-18.5,7.3-22.6,13.6C169.8,424.3,168.7,426,167.6,426z"/>
			<path d="M244,437.1l0.7,3.9c-4.7,4.2-13.8,15-20.3,15c-3.4,0-5-2.8-5-5.8c0-5.3,4.8-11.1,7.6-15.2l-0.2-0.2
				c-5.1,3.8-9.6,8.4-13.6,13.5c-1.3,1.7-4.6,6-7,6c-3.9,0-4.9-5.6-5-8.6c-0.3-6.1,5.3-15,10.4-19.4c1.1-1,1.9-1.1,3.4-1.1
				c5.3,0.2,4.9,1.4,4.9,1.9c0,3.5-11.1,12.4-11.1,14.5c0,0.5,0.4,1,1,1c0.6,0,1.4-0.8,1.8-1.2c7.1-9,23.4-19.9,25.9-19.9
				c0.4,0,0.9,0.4,1.4,1.7c0.5,1.3,1.1,2.9,1.3,4.8c0,3.4-10.9,10.2-10.9,16.3c0,0.8,0.7,1.6,1.6,1.6c2.1,0,6-3.1,7.6-4.4L244,437.1
				z"/>
			<path d="M337.9,407.1c-5.8,1.9-10.9,5.5-12.4,5.7c-0.4,0.1-1-0.4-1-0.9c0-1.2,4.4-5,6.1-6.3c-21-0.2-33.1,8.4-32.6,11.5
				c0.3,1.4-0.3,4,28.1,3.4c0.9,0,5.9-0.1,5.9,1.9c0,1.6-2,4.8-3.3,5.8c-1.3,1.1-6.6,2-8.4,2.3c-22.6,3.7-32,13.7-32,16.9
				c0,1.6,2.7,2.7,7.4,2.8c4.9,0.3,11.9-0.4,20.9-3.1c6.4-1.9,11.9-6.1,17.8-9.4c0.4,6.4,0,9.9-5.1,14.2c-3,2.6-14.5,10.4-32.6,10.1
				c-4.2-0.1-8.2-0.9-12.1-1.9c-3.8-1.1-6.2-6.5-6.2-10c0-5.9,7.9-17.2,33.9-23.7v-0.3c-20.1-0.6-24.2-5.2-24.2-10.2
				c0-8.7,12.8-22.2,42-22.2c2.8,0,11.1-0.3,12.5,2.7l0.2,3.7C343,405.2,342.8,405.5,337.9,407.1z"/>
			<path d="M354.7,448.6c-1.7,1.3-7.3,5.9-9.4,5.9c-2.5,0-7.6-5.8-7.8-10.4c-0.4-11.1,22.6-22.4,32.9-22.6c4.1-0.1,5.8,3.2,5.8,4.2
				s-2.3,1.9-3.1,2.2c1.7,0.7,2.6,1.7,2.6,3.6c0,2.8-7.7,9-7.7,13.2c0,1.5,1.3,2.1,2.7,2.1c3.7,0,8.8-4.5,12.6-7.1l0.7,3.3
				c-3.8,4.3-15.7,13.8-20,13.8c-2.9,0-4.2-2.1-4.2-4.7c0-2.8,2.1-7.5,3.3-9.9l-0.2-0.2L354.7,448.6z M344,446.3
				c0.1,0.4,0.4,2,1.8,1.8c1.8-0.4,4.5-0.1,22-17.8l-0.2-0.2C346.6,436.6,344,441.9,344,446.3z"/>
		</g>
		<g enable-background="new    ">
			<path d="M392,435.4c-3.1,4.9-6.8,7.2-10.6,11l-0.4-3.9c2.3-1.9,4.2-4.1,5.8-6.5c-1.9-0.2-2.4-0.9-2.4-2.7c0-6.4,9-12.7,11.1-12.7
				c0.9,0,1.6,0.7,1.6,1.5c0,0.9-0.3,1.7-0.6,2.5c8.3-1.1,13.2-2.2,14.1-1.1c1.3,1.7,1.9,3.1,2.1,4.7c0,2.7-1.7,4.1-3.7,5.7
				c-2.6,2.2-6.9,6.5-6.9,10.1c0,1.4,1.4,2.5,2.7,2.5c3.8,0,9.4-5.7,12.3-8l0.6,3.3c-3.4,3.8-13.5,13.6-18.6,13.6
				c-3.7,0-6-3.5-6-6.8c0-6,4.6-10.7,8.1-14.9l-0.2-0.2L392,435.4z"/>
			<path d="M447.3,417.7c-4.2,8.4-4.9,11.7-14.6,11.1c-3,3.9-8,11.1-8,16.5c0,1.9,0.6,3.1,2.7,3.1c2.8,0,6-2.7,15.2-9.2l0.4,3.9
				c-5.2,4.8-14.8,14.2-22.3,14.2c-3.5,0-5.6-2.4-5.6-5.9c0-2.9,1.2-6.3,2.3-8.8l-0.2-0.2l-4.5,3.6l-1-3.4
				c5.3-4.1,10.2-8.6,13.4-14.2c-5.4,0-3.7-0.4-8.4,0.4l1-1.6c4.8-7.8,5.5-9.2,14.9-9.6c2.7-3.6,4.6-7.8,9.7-7.8
				c1.1,0,2.8,0.3,2.8,1.7c0,1.6-2.6,4.5-3.4,5.8L447.3,417.7z"/>
		</g>
		<g enable-background="new    ">
			<path d="M448,443.5c4.3-3.4,20.4-17.6,25.3-17.6c2.1,0,4.2,2.2,4.2,4.2c0,1.7-3.5,5.6-4.6,6.8c-5.5,6.6-5.2,6.9-5.2,7.8
				c0,1.2,0.9,1.9,1.9,1.9c2.9,0,9.4-4.8,11.9-6.5l0.4,3.6c-4.1,3.1-14.8,11.8-19.6,11.8c-2.7,0-4.1-2.3-4.1-4.7
				c0-5.6,6.1-12.3,9.3-16.5l-0.2-0.2c-15.1,10.3-19.5,19.7-22.4,19.7c-3.1,0-3.5-6.9-3.5-8.9c0-6.1,2.3-10.3,5.4-15.4
				c10.4-17.2,28-32.7,31-32.7c1.4,0,3.8,0.6,3.8,2.4c0,6-28.1,35.2-33.8,40.8V443.5z"/>
		</g>
		<rect x="119.2" y="310.8" fill="none" width="397.3" height="59.3"/>
		<g enable-background="new    ">
			<path fill="#FFFFFF" d="M154.9,339.5h20.2v0.4c0,4.9-1.8,12.5-6.3,17.2c-4.5,4.7-9.7,5.6-14.5,5.6c-4.9,0-10.1-0.8-14.9-5.7
				c-2.4-2.4-6-7.4-6-15.5c0-6.7,2.4-12,5.9-15.5c5-5.2,11.2-5.9,16-5.9c3.4,0,7.6,0.5,11.4,3.1c2.8,1.8,5.1,4.7,6.6,7.3l-8.5,4.6
				c-0.8-1.6-2-3.2-3.6-4.4c-1.8-1.3-3.9-2-6.2-2c-3.7,0-6.5,1.2-8.4,3.3c-2.3,2.4-3.5,5.9-3.5,9.7c0,4.6,1.7,7.6,3.4,9.4
				c2.4,2.4,5.1,3.2,8.2,3.2c4,0,6.2-1.4,7.1-2.2c0.3-0.2,2.1-1.8,2.9-4.8h-9.8V339.5z"/>
			<path fill="#FFFFFF" d="M184.3,334.5h8.8v4.3c0.8-1.5,2-2.9,3.4-3.8c1.5-0.9,3-1.2,4.7-1.2c1.1,0,1.9,0.1,2.9,0.4l-0.5,8.2
				c-1.2-0.6-2.4-1-4-1c-1.9,0-3.3,0.7-4.4,1.8c-2,2.1-2.1,5-2.1,7.3v11.1h-8.8V334.5z"/>
			<path fill="#FFFFFF" d="M216,317.7c2.9,0,5.1,2.3,5.1,5.1s-2.3,5.1-5.1,5.1c-2.9,0-5.1-2.3-5.1-5.1S213.1,317.7,216,317.7z
				 M220.4,334.5v27.3h-8.8v-27.3H220.4z"/>
			<path fill="#FFFFFF" d="M260.7,361.7h-8.8v-3.3c-1.3,2-3.8,4.2-8.6,4.2c-4,0-7-1.3-9.4-3.7c-2.8-2.8-4.3-6.7-4.3-10.9
				c0-4.5,1.7-8.2,4.3-10.8c2.4-2.3,5.7-3.7,9.5-3.7c3,0,6.3,1,8.5,4v-20.3h8.8V361.7z M240.9,343c-1.3,1.2-2.1,3-2.1,5.2
				c0,2,0.9,3.8,2.1,5c1.3,1.3,3.1,1.9,4.6,1.9c1.6,0,3.6-0.7,5-2c1-1,2-2.6,2-4.9c0-2.3-0.9-3.9-2-5c-1.4-1.5-3.1-2-5-2
				C243.8,341.1,242.3,341.6,240.9,343z"/>
			<path fill="#FFFFFF" d="M310.5,330.9c-3.1-2.8-5.7-2.9-6.8-2.9c-1.3,0-2.9,0.2-4,1.4c-0.6,0.6-1,1.5-1,2.6c0,1,0.3,1.7,0.9,2.3
				c1,0.9,2.4,1.3,5.1,2.3l3.1,1.2c1.8,0.7,4,1.6,5.6,3.1c2.4,2.3,3,5.2,3,7.6c0,4.2-1.5,7.9-3.6,10.1c-3.6,3.8-8.9,4.2-11.6,4.2
				c-2.9,0-5.5-0.4-8.1-1.7c-2.1-1-4.5-2.9-6-4.5l4.9-6.7c1,1,2.7,2.4,3.8,3.1c1.6,1,3.2,1.5,5.1,1.5c1.2,0,2.9-0.2,4.3-1.4
				c0.8-0.7,1.5-1.8,1.5-3.3c0-1.3-0.5-2.2-1.4-2.9c-1.1-0.9-3.6-1.8-4.8-2.3l-3.4-1.2c-1.9-0.7-4.1-1.5-5.7-3.2
				c-2.1-2.3-2.4-5.1-2.4-7.1c0-3.6,1.1-6.7,3.5-9.2c2.9-2.9,6.3-3.7,10.1-3.7c2.8,0,7.3,0.5,12.1,4L310.5,330.9z"/>
			<path fill="#FFFFFF" d="M334.9,358.2l-13-23.8h10.1l7.7,14.8l7.5-14.8h9.9l-21.9,41.2h-9.9L334.9,358.2z"/>
			<path fill="#FFFFFF" d="M379.6,341.4c-1.3-0.8-3.1-1.5-4.8-1.5c-0.9,0-2,0.2-2.5,0.8c-0.3,0.3-0.5,0.8-0.5,1.2
				c0,0.6,0.4,1,0.9,1.2c0.6,0.4,1.5,0.5,2.6,0.9l2.3,0.7c1.5,0.5,3.1,1.1,4.5,2.4c1.6,1.5,2.1,3.1,2.1,5.2c0,3.6-1.6,5.9-2.8,7.1
				c-2.7,2.7-6,3.1-8.9,3.1c-3.7,0-7.6-0.8-11.2-3.9l3.7-5.9c0.9,0.7,2.1,1.6,3,2c1.2,0.6,2.5,0.9,3.7,0.9c0.5,0,2,0,2.8-0.6
				c0.5-0.4,0.9-1.1,0.9-1.8c0-0.5-0.2-1.1-1-1.6c-0.6-0.4-1.4-0.6-2.7-1l-2.2-0.7c-1.6-0.5-3.2-1.3-4.4-2.5c-1.3-1.3-2-2.9-2-5
				c0-2.6,1-4.8,2.6-6.3c2.4-2.3,5.7-2.8,8.2-2.8c4,0,6.8,1,9,2.3L379.6,341.4z"/>
			<path fill="#FFFFFF" d="M401.7,341.6v20.2h-8.8v-20.2h-3.1v-7.1h3.1v-8.8h8.8v8.8h5.4v7.1H401.7z"/>
			<path fill="#FFFFFF" d="M442,349.6h-20.4c0,1.5,0.5,3.4,1.7,4.6c1.3,1.5,3.2,1.7,4.5,1.7c1.3,0,2.6-0.2,3.5-0.8
				c0.1-0.1,1.2-0.7,1.9-2.3l8.3,0.9c-1.2,3.8-3.7,5.9-5.3,6.8c-2.6,1.6-5.6,2-8.6,2c-4.1,0-7.7-0.7-10.9-3.9
				c-2.4-2.4-4.1-6-4.1-10.5c0-3.9,1.4-7.9,4.2-10.8c3.3-3.3,7.4-3.9,10.5-3.9s7.5,0.6,10.8,4.1c3.2,3.4,3.9,7.7,3.9,11.1V349.6z
				 M433.9,344.4c-0.1-0.2-0.5-2-1.8-3.2c-1-0.9-2.4-1.5-4.2-1.5c-2.3,0-3.6,0.9-4.5,1.8c-0.7,0.7-1.3,1.7-1.5,2.9H433.9z"/>
			<path fill="#FFFFFF" d="M450.7,334.5h8.8v3.2c2.3-3.4,5.6-3.8,7.6-3.8c1.2,0,3.3,0.1,5.1,1.2c1.4,0.8,2.6,2.1,3.3,3.8
				c0.7-1.1,1.7-2.4,3.5-3.5c1.9-1.2,3.7-1.5,5.8-1.5c3.3,0,6,1,7.6,2.6c2.6,2.5,2.8,6.2,2.8,8.1v17.2h-8.8v-13.8
				c0-1.4,0-3.8-1.2-5.3c-0.7-0.9-1.9-1.5-3.2-1.5c-1.5,0-2.7,0.7-3.4,1.7c-1.2,1.5-1.3,3.6-1.3,5.4v13.6h-8.8v-14.2
				c0-1.8-0.1-4-1.4-5.3c-0.9-0.9-2-1.1-2.9-1.1c-1.2,0-2.2,0.3-3.1,1.1c-1.7,1.6-1.7,4.6-1.7,5.6v13.9h-8.8V334.5z"/>
		</g>
		<g display="none" enable-background="new    ">
			<path display="inline" fill="#FFFFFF" d="M154.9,339.5h20.2v0.4c0,4.9-1.8,12.5-6.3,17.2c-4.5,4.7-9.7,5.6-14.5,5.6
				c-4.9,0-10.1-0.8-14.9-5.7c-2.4-2.4-6-7.4-6-15.5c0-6.7,2.4-12,5.9-15.5c5-5.2,11.2-5.9,16-5.9c3.4,0,7.6,0.5,11.4,3.1
				c2.8,1.8,5.1,4.7,6.6,7.3l-8.5,4.6c-0.8-1.6-2-3.2-3.6-4.4c-1.8-1.3-3.9-2-6.2-2c-3.7,0-6.5,1.2-8.4,3.3
				c-2.3,2.4-3.5,5.9-3.5,9.7c0,4.6,1.7,7.6,3.4,9.4c2.4,2.4,5.1,3.2,8.2,3.2c4,0,6.2-1.4,7.1-2.2c0.3-0.2,2.1-1.8,2.9-4.8h-9.8
				V339.5z"/>
			<path display="inline" fill="#FFFFFF" d="M184.3,334.5h8.8v4.3c0.8-1.5,2-2.9,3.4-3.8c1.5-0.9,3-1.2,4.7-1.2
				c1.1,0,1.9,0.1,2.9,0.4l-0.5,8.2c-1.2-0.6-2.4-1-4-1c-1.9,0-3.3,0.7-4.4,1.8c-2,2.1-2.1,5-2.1,7.3v11.1h-8.8V334.5z"/>
			<path display="inline" fill="#FFFFFF" d="M216,317.7c2.9,0,5.1,2.3,5.1,5.1s-2.3,5.1-5.1,5.1c-2.9,0-5.1-2.3-5.1-5.1
				S213.1,317.7,216,317.7z M220.4,334.5v27.3h-8.8v-27.3H220.4z"/>
			<path display="inline" fill="#FFFFFF" d="M260.7,361.7h-8.8v-3.3c-1.3,2-3.8,4.2-8.6,4.2c-4,0-7-1.3-9.4-3.7
				c-2.8-2.8-4.3-6.7-4.3-10.9c0-4.5,1.7-8.2,4.3-10.8c2.4-2.3,5.7-3.7,9.5-3.7c3,0,6.3,1,8.5,4v-20.3h8.8V361.7z M240.9,343
				c-1.3,1.2-2.1,3-2.1,5.2c0,2,0.9,3.8,2.1,5c1.3,1.3,3.1,1.9,4.6,1.9c1.6,0,3.6-0.7,5-2c1-1,2-2.6,2-4.9c0-2.3-0.9-3.9-2-5
				c-1.4-1.5-3.1-2-5-2C243.8,341.1,242.3,341.6,240.9,343z"/>
			<path display="inline" fill="#FFFFFF" d="M310.5,330.9c-3.1-2.8-5.7-2.9-6.8-2.9c-1.3,0-2.9,0.2-4,1.4c-0.6,0.6-1,1.5-1,2.6
				c0,1,0.3,1.7,0.9,2.3c1,0.9,2.4,1.3,5.1,2.3l3.1,1.2c1.8,0.7,4,1.6,5.6,3.1c2.4,2.3,3,5.2,3,7.6c0,4.2-1.5,7.9-3.6,10.1
				c-3.6,3.8-8.9,4.2-11.6,4.2c-2.9,0-5.5-0.4-8.1-1.7c-2.1-1-4.5-2.9-6-4.5l4.9-6.7c1,1,2.7,2.4,3.8,3.1c1.6,1,3.2,1.5,5.1,1.5
				c1.2,0,2.9-0.2,4.3-1.4c0.8-0.7,1.5-1.8,1.5-3.3c0-1.3-0.5-2.2-1.4-2.9c-1.1-0.9-3.6-1.8-4.8-2.3l-3.4-1.2
				c-1.9-0.7-4.1-1.5-5.7-3.2c-2.1-2.3-2.4-5.1-2.4-7.1c0-3.6,1.1-6.7,3.5-9.2c2.9-2.9,6.3-3.7,10.1-3.7c2.8,0,7.3,0.5,12.1,4
				L310.5,330.9z"/>
			<path display="inline" fill="#FFFFFF" d="M334.9,358.2l-13-23.8h10.1l7.7,14.8l7.5-14.8h9.9l-21.9,41.2h-9.9L334.9,358.2z"/>
			<path display="inline" fill="#FFFFFF" d="M379.6,341.4c-1.3-0.8-3.1-1.5-4.8-1.5c-0.9,0-2,0.2-2.5,0.8c-0.3,0.3-0.5,0.8-0.5,1.2
				c0,0.6,0.4,1,0.9,1.2c0.6,0.4,1.5,0.5,2.6,0.9l2.3,0.7c1.5,0.5,3.1,1.1,4.5,2.4c1.6,1.5,2.1,3.1,2.1,5.2c0,3.6-1.6,5.9-2.8,7.1
				c-2.7,2.7-6,3.1-8.9,3.1c-3.7,0-7.6-0.8-11.2-3.9l3.7-5.9c0.9,0.7,2.1,1.6,3,2c1.2,0.6,2.5,0.9,3.7,0.9c0.5,0,2,0,2.8-0.6
				c0.5-0.4,0.9-1.1,0.9-1.8c0-0.5-0.2-1.1-1-1.6c-0.6-0.4-1.4-0.6-2.7-1l-2.2-0.7c-1.6-0.5-3.2-1.3-4.4-2.5c-1.3-1.3-2-2.9-2-5
				c0-2.6,1-4.8,2.6-6.3c2.4-2.3,5.7-2.8,8.2-2.8c4,0,6.8,1,9,2.3L379.6,341.4z"/>
			<path display="inline" fill="#FFFFFF" d="M401.7,341.6v20.2h-8.8v-20.2h-3.1v-7.1h3.1v-8.8h8.8v8.8h5.4v7.1H401.7z"/>
			<path display="inline" fill="#FFFFFF" d="M442,349.6h-20.4c0,1.5,0.5,3.4,1.7,4.6c1.3,1.5,3.2,1.7,4.5,1.7c1.3,0,2.6-0.2,3.5-0.8
				c0.1-0.1,1.2-0.7,1.9-2.3l8.3,0.9c-1.2,3.8-3.7,5.9-5.3,6.8c-2.6,1.6-5.6,2-8.6,2c-4.1,0-7.7-0.7-10.9-3.9
				c-2.4-2.4-4.1-6-4.1-10.5c0-3.9,1.4-7.9,4.2-10.8c3.3-3.3,7.4-3.9,10.5-3.9s7.5,0.6,10.8,4.1c3.2,3.4,3.9,7.7,3.9,11.1V349.6z
				 M433.9,344.4c-0.1-0.2-0.5-2-1.8-3.2c-1-0.9-2.4-1.5-4.2-1.5c-2.3,0-3.6,0.9-4.5,1.8c-0.7,0.7-1.3,1.7-1.5,2.9H433.9z"/>
			<path display="inline" fill="#FFFFFF" d="M450.7,334.5h8.8v3.2c2.3-3.4,5.6-3.8,7.6-3.8c1.2,0,3.3,0.1,5.1,1.2
				c1.4,0.8,2.6,2.1,3.3,3.8c0.7-1.1,1.7-2.4,3.5-3.5c1.9-1.2,3.7-1.5,5.8-1.5c3.3,0,6,1,7.6,2.6c2.6,2.5,2.8,6.2,2.8,8.1v17.2h-8.8
				v-13.8c0-1.4,0-3.8-1.2-5.3c-0.7-0.9-1.9-1.5-3.2-1.5c-1.5,0-2.7,0.7-3.4,1.7c-1.2,1.5-1.3,3.6-1.3,5.4v13.6h-8.8v-14.2
				c0-1.8-0.1-4-1.4-5.3c-0.9-0.9-2-1.1-2.9-1.1c-1.2,0-2.2,0.3-3.1,1.1c-1.7,1.6-1.7,4.6-1.7,5.6v13.9h-8.8V334.5z"/>
		</g>
		<rect x="119.2" y="242.2" fill="none" width="396.4" height="58.5"/>
		<g display="none" enable-background="new    ">
			<path display="inline" d="M151.5,259.4v31.1h-8.9v-31.1h-8.4v-7.5h25.7v7.5H151.5z"/>
		</g>
		<g display="none" enable-background="new    ">
			<path display="inline" d="M163.7,249.4h8.1v18.9c1-1.2,2.1-2.1,3-2.6c1.7-0.9,3.1-1.1,4.9-1.1c2,0,4.9,0.3,7.1,2.5
				c2.3,2.3,2.5,5.4,2.5,7.3v15.9h-8.1v-12.9c0-1.7-0.1-3.8-1.4-5c-0.7-0.7-2-1.1-3.2-1.1c-1.7,0-2.8,0.8-3.2,1.2
				c-1.6,1.6-1.7,4-1.7,5.2v12.6h-8.1V249.4z"/>
			<path display="inline" d="M220.2,279.3h-18.7c0,1.4,0.5,3.2,1.5,4.3c1.2,1.4,2.9,1.6,4.2,1.6c1.2,0,2.4-0.2,3.3-0.7
				c0.1-0.1,1.1-0.7,1.7-2.1l7.7,0.8c-1.1,3.5-3.4,5.4-4.8,6.3c-2.4,1.5-5.1,1.9-7.9,1.9c-3.8,0-7.1-0.7-10-3.6
				c-2.2-2.2-3.8-5.5-3.8-9.7c0-3.6,1.3-7.3,3.8-9.9c3-3,6.8-3.6,9.6-3.6s6.9,0.5,10,3.8c3,3.2,3.5,7.1,3.5,10.2V279.3z
				 M212.7,274.5c-0.1-0.2-0.5-1.8-1.6-2.9c-0.9-0.8-2.2-1.4-3.8-1.4c-2.1,0-3.3,0.8-4.1,1.6c-0.6,0.7-1.2,1.6-1.4,2.7H212.7z"/>
			<path display="inline" d="M260.1,260.2H248v7.3h11.3v7.3H248v15.6h-8.7v-37.5h20.8V260.2z"/>
		</g>
		<g display="none" enable-background="new    ">
			<path display="inline" d="M266.7,265.3h8.1v3.9c0.7-1.4,1.9-2.7,3.2-3.5c1.4-0.8,2.8-1.1,4.3-1.1c1,0,1.7,0.1,2.6,0.4l-0.5,7.6
				c-1.1-0.6-2.3-0.9-3.7-0.9c-1.7,0-3,0.6-4.1,1.7c-1.8,1.9-2,4.6-2,6.8v10.2h-8.1V265.3z"/>
		</g>
		<g display="none" enable-background="new    ">
			<path display="inline" d="M315.5,279.3h-18.7c0,1.4,0.5,3.2,1.5,4.3c1.2,1.4,2.9,1.6,4.2,1.6c1.2,0,2.4-0.2,3.3-0.7
				c0.1-0.1,1.1-0.7,1.7-2.1l7.7,0.8c-1.1,3.5-3.4,5.4-4.8,6.3c-2.4,1.5-5.1,1.9-7.9,1.9c-3.8,0-7.1-0.7-10-3.6
				c-2.2-2.2-3.8-5.5-3.8-9.7c0-3.6,1.3-7.3,3.8-9.9c3-3,6.8-3.6,9.6-3.6s6.9,0.5,10,3.8c3,3.2,3.5,7.1,3.5,10.2V279.3z M308,274.5
				c-0.1-0.2-0.5-1.8-1.6-2.9c-0.9-0.8-2.2-1.4-3.8-1.4c-2.1,0-3.3,0.8-4.1,1.6c-0.6,0.7-1.2,1.6-1.4,2.7H308z"/>
			<path display="inline" d="M325.1,249.9c2.6,0,4.7,2.1,4.7,4.7c0,2.6-2.1,4.7-4.7,4.7c-2.6,0-4.7-2.1-4.7-4.7
				C320.4,252,322.5,249.9,325.1,249.9z M329.2,265.3v25.1h-8.1v-25.1H329.2z"/>
			<path display="inline" d="M336.1,265.3h8.1v3c2.5-3.2,5.4-3.7,7.8-3.7c2.2,0,5.1,0.4,7.2,2.5c2.4,2.4,2.5,5.3,2.5,7.4v15.9h-8.1
				v-12.9c0-1.6-0.1-3.7-1.4-5c-0.6-0.6-1.6-1.1-3.1-1.1c-1.7,0-2.8,0.7-3.4,1.4c-1.4,1.4-1.6,3.2-1.6,4.8v12.9h-8.1V265.3z"/>
			<path display="inline" d="M395.3,290.5h-8.1v-3c-1.2,1.8-3.5,3.9-7.9,3.9c-3.7,0-6.4-1.2-8.6-3.4c-2.6-2.6-3.9-6.2-3.9-10.1
				c0-4.2,1.5-7.6,3.9-9.9c2.2-2.1,5.3-3.4,8.7-3.4c2.8,0,5.8,0.9,7.8,3.7v-18.7h8.1V290.5z M377,273.2c-1.2,1.1-2,2.8-2,4.8
				c0,1.9,0.8,3.5,2,4.6c1.2,1.2,2.8,1.7,4.2,1.7c1.5,0,3.3-0.6,4.6-1.9c1-0.9,1.9-2.4,1.9-4.5c0-2.1-0.8-3.6-1.8-4.6
				c-1.3-1.4-2.8-1.9-4.6-1.9C379.7,271.5,378.3,271.9,377,273.2z"/>
			<path display="inline" d="M410.2,249.4v41h-8.1v-41H410.2z"/>
			<path display="inline" d="M421.3,249.9c2.6,0,4.7,2.1,4.7,4.7c0,2.6-2.1,4.7-4.7,4.7c-2.6,0-4.7-2.1-4.7-4.7
				C416.6,252,418.7,249.9,421.3,249.9z M425.4,265.3v25.1h-8.1v-25.1H425.4z"/>
			<path display="inline" d="M458,279.3h-18.7c0,1.4,0.5,3.2,1.5,4.3c1.2,1.4,2.9,1.6,4.2,1.6c1.2,0,2.4-0.2,3.3-0.7
				c0.1-0.1,1.1-0.7,1.7-2.1l7.7,0.8c-1.1,3.5-3.4,5.4-4.8,6.3c-2.4,1.5-5.1,1.9-7.9,1.9c-3.8,0-7.1-0.7-10-3.6
				c-2.2-2.2-3.8-5.5-3.8-9.7c0-3.6,1.3-7.3,3.8-9.9c3-3,6.8-3.6,9.6-3.6s6.9,0.5,10,3.8c3,3.2,3.5,7.1,3.5,10.2V279.3z
				 M450.5,274.5c-0.1-0.2-0.5-1.8-1.6-2.9c-0.9-0.8-2.2-1.4-3.8-1.4c-2.1,0-3.3,0.8-4.1,1.6c-0.6,0.7-1.2,1.6-1.4,2.7H450.5z"/>
			<path display="inline" d="M478.4,271.8c-1.2-0.7-2.9-1.4-4.4-1.4c-0.8,0-1.8,0.2-2.3,0.7c-0.3,0.3-0.5,0.7-0.5,1.1
				c0,0.6,0.4,0.9,0.8,1.1c0.6,0.3,1.4,0.5,2.4,0.8l2.1,0.7c1.4,0.5,2.9,1,4.2,2.2c1.5,1.4,2,2.9,2,4.8c0,3.3-1.5,5.5-2.6,6.6
				c-2.5,2.5-5.5,2.9-8.2,2.9c-3.4,0-7-0.7-10.3-3.6l3.4-5.5c0.8,0.7,1.9,1.5,2.8,1.9c1.1,0.6,2.3,0.8,3.4,0.8c0.5,0,1.8,0,2.5-0.6
				c0.5-0.4,0.8-1,0.8-1.6c0-0.5-0.2-1-0.9-1.5c-0.6-0.3-1.3-0.6-2.5-0.9l-2-0.6c-1.5-0.5-3-1.2-4.1-2.3c-1.2-1.2-1.8-2.6-1.8-4.6
				c0-2.4,1-4.4,2.4-5.8c2.3-2.1,5.3-2.5,7.6-2.5c3.7,0,6.3,1,8.3,2.1L478.4,271.8z"/>
			<path display="inline" d="M495.8,271.9v18.6h-8.1v-18.6h-2.8v-6.5h2.8v-8.1h8.1v8.1h5v6.5H495.8z"/>
		</g>
	</g>
	<g>
		<g>
			<path d="M152.1,256.1v31.1h-8.9v-31.1h-8.4v-7.6h25.7v7.6H152.1z"/>
			<path d="M164.3,246.2h8.1v18.9c1-1.2,2.1-2.1,3.1-2.6c1.7-0.9,3.1-1,4.9-1c1.9,0,4.9,0.3,7.1,2.6c2.3,2.3,2.5,5.4,2.5,7.3v15.9
				h-8.1v-12.9c0-1.8-0.1-3.8-1.4-5c-0.7-0.7-2-1.1-3.1-1.1c-1.8,0-2.7,0.8-3.2,1.2c-1.6,1.6-1.7,4-1.7,5.2v12.5h-8.1V246.2z"/>
			<path d="M220.8,276.1H202c0,1.4,0.5,3.1,1.5,4.3c1.2,1.4,2.9,1.6,4.2,1.6c1.2,0,2.4-0.2,3.3-0.7c0.1-0.1,1-0.6,1.8-2.1l7.6,0.8
				c-1.1,3.5-3.4,5.4-4.8,6.3c-2.4,1.4-5.1,1.8-8,1.8c-3.8,0-7.1-0.6-10.1-3.6c-2.2-2.2-3.8-5.5-3.8-9.6c0-3.6,1.3-7.3,3.9-9.9
				c3.1-3.1,6.8-3.6,9.6-3.6c2.8,0,6.8,0.5,10,3.8c3,3.1,3.5,7.1,3.5,10.2L220.8,276.1L220.8,276.1z M213.3,271.2
				c-0.1-0.2-0.5-1.8-1.6-2.9c-0.9-0.8-2.2-1.4-3.9-1.4c-2.1,0-3.3,0.8-4.1,1.6c-0.6,0.6-1.2,1.6-1.4,2.7H213.3z"/>
			<path d="M260.7,257h-12.1v7.2h11.3v7.3h-11.3v15.7h-8.7v-37.6h20.8L260.7,257L260.7,257z"/>
			<path d="M266.1,262.2h8.1v3.9c0.7-1.4,1.8-2.7,3.1-3.5c1.4-0.8,2.7-1,4.3-1c1,0,1.8,0.1,2.7,0.4l-0.5,7.6c-1-0.6-2.3-0.9-3.7-0.9
				c-1.8,0-3.1,0.6-4,1.7c-1.8,1.9-2,4.6-2,6.8v10.2H266L266.1,262.2L266.1,262.2z"/>
			<path d="M331.3,276.1h-18.7c0,1.4,0.5,3.1,1.5,4.3c1.2,1.4,2.9,1.6,4.2,1.6c1.2,0,2.4-0.2,3.3-0.7c0.1-0.1,1-0.6,1.8-2.1l7.6,0.8
				c-1.1,3.5-3.4,5.4-4.8,6.3c-2.4,1.4-5.1,1.8-8,1.8c-3.8,0-7.1-0.6-10.1-3.6c-2.2-2.2-3.8-5.5-3.8-9.6c0-3.6,1.3-7.3,3.9-9.9
				c3.1-3.1,6.8-3.6,9.6-3.6s6.8,0.5,10,3.8c3,3.1,3.5,7.1,3.5,10.2L331.3,276.1L331.3,276.1z M323.9,271.2
				c-0.1-0.2-0.5-1.8-1.6-2.9c-0.9-0.8-2.2-1.4-3.9-1.4c-2.1,0-3.3,0.8-4.1,1.6c-0.6,0.6-1.2,1.6-1.4,2.7H323.9z"/>
			<path d="M294.8,246.7c2.7,0,4.7,2.1,4.7,4.7s-2.1,4.7-4.7,4.7c-2.7,0-4.7-2.1-4.7-4.7C290.2,248.8,292.2,246.7,294.8,246.7z
				 M298.9,262.2v25.1h-8.1v-25.1H298.9z"/>
			<path d="M335.5,262.2h8.1v3c2.5-3.1,5.4-3.7,7.8-3.7c2.2,0,5.1,0.4,7.2,2.6c2.3,2.3,2.6,5.4,2.6,7.4v15.8h-8.1v-12.9
				c0-1.6-0.1-3.7-1.4-5c-0.6-0.6-1.6-1.1-3.1-1.1c-1.7,0-2.7,0.6-3.4,1.4c-1.4,1.4-1.6,3.1-1.6,4.8v12.9h-8.1L335.5,262.2
				L335.5,262.2z"/>
			<path d="M394.8,287.2h-8.1v-3.1c-1.2,1.8-3.5,3.9-8,3.9c-3.7,0-6.4-1.2-8.6-3.5c-2.6-2.6-3.9-6.2-3.9-10.1c0-4.2,1.5-7.6,3.9-9.9
				c2.2-2.1,5.3-3.4,8.8-3.4c2.7,0,5.8,0.9,7.8,3.7v-18.7h8.1V287.2z M376.5,270c-1.2,1.1-2,2.7-2,4.8c0,1.8,0.8,3.5,2,4.6
				c1.2,1.2,2.8,1.8,4.2,1.8c1.5,0,3.3-0.6,4.6-1.8c1-0.9,1.8-2.4,1.8-4.5c0-2.2-0.9-3.6-1.8-4.6c-1.3-1.4-2.8-1.8-4.6-1.8
				C379.2,268.3,377.7,268.7,376.5,270z"/>
			<path d="M409.7,246.2v41h-8.1v-41H409.7z"/>
			<path d="M420.8,246.7c2.7,0,4.7,2.1,4.7,4.7s-2.1,4.7-4.7,4.7c-2.7,0-4.7-2.1-4.7-4.7S418.1,246.7,420.8,246.7z M424.9,262.2
				v25.1h-8.1v-25.1H424.9z"/>
			<path d="M457.4,276.1h-18.7c0,1.4,0.5,3.1,1.5,4.3c1.2,1.4,2.9,1.6,4.2,1.6c1.2,0,2.4-0.2,3.3-0.7c0.1-0.1,1-0.6,1.8-2.1l7.6,0.8
				c-1.1,3.5-3.4,5.4-4.8,6.3c-2.4,1.4-5.1,1.8-8,1.8c-3.8,0-7.1-0.6-10.1-3.6c-2.2-2.2-3.8-5.5-3.8-9.6c0-3.6,1.3-7.3,3.9-9.9
				c3.1-3.1,6.8-3.6,9.6-3.6s6.8,0.5,10,3.8c3,3.1,3.5,7.1,3.5,10.2L457.4,276.1L457.4,276.1z M450,271.2c-0.1-0.2-0.5-1.8-1.6-2.9
				c-0.9-0.8-2.2-1.4-3.9-1.4c-2.1,0-3.3,0.8-4.1,1.6c-0.6,0.6-1.2,1.6-1.4,2.7H450z"/>
			<path d="M477.9,268.6c-1.2-0.7-2.9-1.4-4.4-1.4c-0.9,0-1.8,0.2-2.3,0.7c-0.2,0.2-0.5,0.7-0.5,1.1c0,0.6,0.4,0.9,0.8,1.1
				c0.6,0.3,1.4,0.5,2.4,0.8l2.2,0.6c1.4,0.5,2.9,1,4.2,2.2c1.4,1.4,2,2.9,2,4.8c0,3.3-1.4,5.5-2.6,6.6c-2.5,2.5-5.5,2.9-8.2,2.9
				c-3.4,0-7.1-0.7-10.3-3.6l3.5-5.5c0.8,0.6,1.9,1.4,2.7,1.8c1.1,0.6,2.3,0.8,3.4,0.8c0.5,0,1.8,0,2.6-0.6c0.5-0.4,0.9-1,0.9-1.6
				c0-0.5-0.2-1-0.9-1.4c-0.6-0.3-1.3-0.6-2.5-0.9l-2-0.6c-1.4-0.5-3-1.2-4-2.3c-1.2-1.2-1.8-2.7-1.8-4.6c0-2.4,1-4.4,2.4-5.8
				c2.3-2.1,5.3-2.6,7.6-2.6c3.7,0,6.3,1,8.4,2.2L477.9,268.6z"/>
			<path d="M495.2,268.7v18.6h-8.1v-18.6h-2.8v-6.5h2.8V254h8.1v8.1h5v6.5H495.2z"/>
		</g>
	</g>
	<g>
		<path d="M193.5,406c3.5-1,6.2-0.6,8,0.8c1.8,1.4,2.7,3.8,2.7,7c0.4,17.6-20.6,41.4-40.9,41.3c-7-0.1-15-4.3-15.8-18
			c-1-19.1,28.4-40.8,45.4-43.2c4.2-0.6,8.6,5.6,8.6,7.1c0,1.8-3,2.7-4.3,3.1C195.8,404.7,194.6,405.3,193.5,406L193.5,406z
			 M167.6,426c-1.1,0-1.1-1.7-1.2-2.5c-5,5-9.8,12.1-9.8,19.3c0,3.1,1.4,5.7,4.7,5.7c5,0,12.6-3.7,16.4-6.9
			c11.8-10.1,18.6-20.9,18.8-27.3c0.1-2.1-1.1-4.3-3.5-4.3c-7.8,0-18.5,7.3-22.7,13.6C169.8,424.4,168.7,426,167.6,426z"/>
		<path d="M244.2,437.1l0.7,3.9c-4.7,4.2-13.8,15-20.3,15c-3.4,0-5-2.8-5-5.9c0-5.3,4.7-11.2,7.6-15.2l-0.2-0.2
			c-5.1,3.8-9.6,8.4-13.6,13.5c-1.4,1.7-4.6,6-7,6c-3.9,0-4.8-5.5-5-8.6c-0.2-6.1,5.3-15,10.5-19.4c1.1-1,1.9-1,3.5-1
			c5.3,0.2,4.8,1.4,4.8,1.9c0,3.5-11.2,12.4-11.2,14.5c0,0.6,0.5,1,1,1c0.6,0,1.4-0.8,1.8-1.2c7.1-9,23.3-19.9,25.9-19.9
			c0.3,0,0.9,0.4,1.4,1.7c0.6,1.4,1,2.9,1.4,4.7c0,3.5-10.9,10.1-10.9,16.2c0,0.8,0.7,1.6,1.6,1.6c2.1,0,6-3.1,7.6-4.4L244.2,437.1z
			"/>
		<path d="M338.4,407.1c-5.8,1.9-10.9,5.5-12.4,5.8c-0.3,0.1-1-0.3-1-0.9c0-1.2,4.4-5,6.1-6.3c-21-0.2-33.1,8.4-32.6,11.5
			c0.2,1.4-0.2,4,28.1,3.4c0.9,0,6-0.1,6,1.9c0,1.6-2,4.7-3.3,5.8c-1.4,1.1-6.6,2-8.4,2.3c-22.7,3.7-32,13.7-32,16.9
			c0,1.6,2.7,2.7,7.4,2.8c4.8,0.2,11.9-0.3,20.9-3.1c6.4-1.9,11.9-6.1,17.8-9.4c0.4,6.4,0,9.9-5.1,14.2c-3,2.6-14.5,10.5-32.6,10.1
			c-4.2-0.1-8.2-0.9-12.1-1.9c-3.8-1-6.2-6.4-6.2-10c0-6,7.9-17.3,33.9-23.7v-0.2c-20.1-0.6-24.2-5.2-24.2-10.2
			c0-8.7,12.8-22.2,42.1-22.2c2.8,0,11.2-0.2,12.5,2.7l0.2,3.7C343.6,405.1,343.4,405.5,338.4,407.1z"/>
		<path d="M355.4,448.6c-1.7,1.4-7.3,6-9.4,6c-2.5,0-7.6-5.9-7.8-10.5c-0.3-11.1,22.7-22.4,32.9-22.7c4.1-0.1,5.8,3.2,5.8,4.3
			s-2.3,1.9-3.1,2.3c1.7,0.7,2.6,1.7,2.6,3.6c0,2.8-7.7,9-7.7,13.2c0,1.5,1.3,2.1,2.7,2.1c3.7,0,8.8-4.5,12.5-7.1l0.7,3.3
			c-3.8,4.3-15.7,13.8-20,13.8c-2.9,0-4.3-2.1-4.3-4.7c0-2.8,2.1-7.5,3.3-9.9l-0.2-0.2L355.4,448.6z M344.7,446.3
			c0.1,0.4,0.4,2,1.8,1.8c1.8-0.3,4.5-0.1,22-17.8l-0.2-0.2C347.3,436.6,344.7,442,344.7,446.3z"/>
		<path d="M392.1,435.4c-3.1,4.8-6.8,7.2-10.6,10.9l-0.3-3.9c2.3-1.8,4.2-4.1,5.9-6.4c-1.8-0.2-2.4-0.9-2.4-2.7
			c0-6.4,9-12.7,11.2-12.7c0.9,0,1.6,0.7,1.6,1.5c0,0.9-0.2,1.7-0.6,2.5c8.3-1.1,13.2-2.3,14.1-1.1c1.4,1.7,1.9,3.1,2.1,4.7
			c0,2.7-1.7,4.1-3.7,5.7c-2.6,2.3-6.9,6.5-6.9,10.1c0,1.4,1.4,2.5,2.7,2.5c3.8,0,9.4-5.7,12.3-8l0.6,3.3
			c-3.4,3.8-13.5,13.6-18.6,13.6c-3.7,0-6-3.5-6-6.8c0-6,4.6-10.7,8.1-15l-0.2-0.2L392.1,435.4z"/>
		<path d="M447.3,417.7c-4.2,8.4-4.8,11.7-14.6,11.1c-3,3.9-8,11.2-8,16.5c0,1.9,0.6,3.1,2.7,3.1c2.8,0,6-2.7,15.2-9.2l0.4,3.9
			c-5.2,4.7-14.8,14.2-22.3,14.2c-3.5,0-5.5-2.4-5.5-6c0-2.9,1.1-6.3,2.3-8.8l-0.2-0.2l-4.5,3.6l-1-3.4c5.3-4.1,10.1-8.6,13.4-14.2
			c-5.4,0-3.7-0.3-8.4,0.3l1-1.6c4.7-7.8,5.5-9.2,15-9.6c2.7-3.6,4.6-7.8,9.7-7.8c1.1,0,2.8,0.2,2.8,1.7c0,1.6-2.6,4.5-3.5,5.8
			L447.3,417.7z"/>
		<path d="M448,443.4c4.3-3.5,20.4-17.6,25.3-17.6c2.1,0,4.3,2.3,4.3,4.3c0,1.7-3.5,5.5-4.6,6.8c-5.5,6.6-5.2,6.9-5.2,7.8
			c0,1.1,0.9,1.8,1.9,1.8c2.9,0,9.4-4.7,12-6.4l0.4,3.6c-4.1,3.1-14.8,11.7-19.6,11.7c-2.7,0-4.1-2.3-4.1-4.7
			c0-5.5,6.1-12.3,9.3-16.5l-0.2-0.2c-15.1,10.4-19.5,19.7-22.4,19.7c-3.1,0-3.5-6.9-3.5-8.9c0-6.1,2.3-10.4,5.4-15.4
			c10.5-17.3,28.1-32.7,31-32.7c1.4,0,3.8,0.6,3.8,2.4c0,6-28.1,35.2-33.8,40.8L448,443.4L448,443.4z"/>
	</g>
</g>
</svg>
