<?xml version="1.0" encoding="utf-8"?>
<!-- Generator: Adobe Illustrator 17.1.0, SVG Export Plug-In . SVG Version: 6.00 Build 0)  -->
<!DOCTYPE svg PUBLIC "-//W3C//DTD SVG 1.1//EN" "http://www.w3.org/Graphics/SVG/1.1/DTD/svg11.dtd" [
	<!ENTITY ns_extend "http://ns.adobe.com/Extensibility/1.0/">
	<!ENTITY ns_ai "http://ns.adobe.com/AdobeIllustrator/10.0/">
	<!ENTITY ns_graphs "http://ns.adobe.com/Graphs/1.0/">
	<!ENTITY ns_vars "http://ns.adobe.com/Variables/1.0/">
	<!ENTITY ns_imrep "http://ns.adobe.com/ImageReplacement/1.0/">
	<!ENTITY ns_sfw "http://ns.adobe.com/SaveForWeb/1.0/">
	<!ENTITY ns_custom "http://ns.adobe.com/GenericCustomNamespace/1.0/">
	<!ENTITY ns_adobe_xpath "http://ns.adobe.com/XPath/1.0/">
]>
<svg version="1.1" xmlns:x="&ns_extend;" xmlns:i="&ns_ai;" xmlns:graph="&ns_graphs;"
	 xmlns="http://www.w3.org/2000/svg" xmlns:xlink="http://www.w3.org/1999/xlink" x="0px" y="0px" viewBox="0 0 530.2 596.9"
	 enable-background="new 0 0 530.2 596.9" xml:space="preserve">
<metadata>
	<sfw  xmlns="&ns_sfw;">
		<slices></slices>
		<sliceSourceBounds  height="653" width="752.1" bottomLeftOrigin="true" x="25" y="-670"></sliceSourceBounds>
	</sfw>
</metadata>
<g id="Layer_1">
	<rect x="-138.6" y="10.1" fill="none" width="55" height="55"/>
	<rect x="-78.6" y="10.1" fill="none" width="55" height="55"/>
	<rect x="-18.6" y="10.1" fill="none" width="55" height="55"/>
	<rect x="41.4" y="10.1" fill="none" width="55" height="55"/>
	<rect x="-138.6" y="70.1" fill="none" width="55" height="55"/>
	<rect x="-78.6" y="70.1" fill="none" width="55" height="55"/>
	<rect x="-18.6" y="70.1" fill="none" width="55" height="55"/>
	<rect x="41.4" y="70.1" fill="none" width="55" height="55"/>
	<rect x="-138.6" y="131.1" fill="none" width="55" height="54"/>
	<rect x="-78.6" y="131.1" fill="none" width="55" height="54"/>
	<rect x="-18.6" y="131.1" fill="none" width="55" height="54"/>
	<rect x="41.4" y="131.1" fill="none" width="55" height="54"/>
	<rect x="-138.6" y="190.1" fill="none" width="55" height="55"/>
	<rect x="-78.6" y="190.1" fill="none" width="55" height="55"/>
	<rect x="-18.6" y="190.1" fill="none" width="55" height="55"/>
	<rect x="41.4" y="190.1" fill="none" width="55" height="55"/>
	<g>
		<line fill="none" stroke="#00A651" x1="95.9" y1="-56.9" x2="95.9" y2="313.1"/>
		<line fill="none" stroke="#00A651" x1="41.9" y1="-56.9" x2="41.9" y2="313.1"/>
		<line fill="none" stroke="#00A651" x1="36.9" y1="-56.9" x2="36.9" y2="313.1"/>
		<line fill="none" stroke="#00A651" x1="-18.1" y1="-56.9" x2="-18.1" y2="313.1"/>
		<line fill="none" stroke="#00A651" x1="-24.1" y1="-56.9" x2="-24.1" y2="313.1"/>
		<line fill="none" stroke="#00A651" x1="-79.1" y1="-56.9" x2="-79.1" y2="313.1"/>
		<line fill="none" stroke="#00A651" x1="-84.1" y1="-56.9" x2="-84.1" y2="313.1"/>
		<line fill="none" stroke="#00A651" x1="-139.1" y1="-56.9" x2="-139.1" y2="313.1"/>
		<line fill="none" stroke="#00A651" x1="-242.6" y1="245.6" x2="214.4" y2="245.6"/>
		<line fill="none" stroke="#00A651" x1="-242.6" y1="190.6" x2="214.4" y2="190.6"/>
		<line fill="none" stroke="#00A651" x1="-242.6" y1="185.6" x2="214.4" y2="185.6"/>
		<line fill="none" stroke="#00A651" x1="-242.6" y1="130.6" x2="214.4" y2="130.6"/>
		<line fill="none" stroke="#00A651" x1="-242.6" y1="124.6" x2="214.4" y2="124.6"/>
		<line fill="none" stroke="#00A651" x1="-242.6" y1="69.6" x2="214.4" y2="69.6"/>
		<line fill="none" stroke="#00A651" x1="-242.6" y1="64.6" x2="214.4" y2="64.6"/>
		<line fill="none" stroke="#00A651" x1="-242.6" y1="10.6" x2="214.4" y2="10.6"/>
	</g>
</g>
<g id="Layer_2">
	<g>
		<rect x="15.4" y="12.1" fill="#F7931E" width="118" height="86"/>
		<rect x="14.4" y="292.1" fill="#F7931E" width="493" height="83"/>
		<rect x="15.4" y="383.1" fill="#00CFFF" width="493" height="83"/>
		<rect x="147.4" y="12.1" fill="#00CFFF" width="111" height="86"/>
		<rect x="15.4" y="200.1" fill="#F7931E" width="241" height="83"/>
		<rect x="269.4" y="200.1" fill="#00CFFF" width="239" height="83"/>
		<rect x="270.4" y="12.1" fill="#F7931E" width="112" height="86"/>
		<rect x="15.4" y="107.1" fill="#F7931E" width="157" height="83"/>
		<rect x="185.4" y="107.1" fill="#00CFFF" width="154" height="83"/>
		<rect x="352.4" y="107.1" fill="#F7931E" width="156" height="83"/>
		<rect x="394.4" y="12.1" fill="#00CFFF" width="114" height="86"/>
	</g>
	<g>
		<text transform="matrix(1 0 0 1 46.8816 565.3102)"><tspan x="0" y="0" font-family="'BrushScriptStd'" font-size="110" letter-spacing="2">On Ea</tspan><tspan x="300.1" y="0" font-family="'BrushScriptStd'" font-size="110">rt</tspan><tspan x="370.5" y="0" font-family="'BrushScriptStd'" font-size="110" letter-spacing="2">h</tspan></text>
		<rect x="15.4" y="386.5" fill="none" width="494.1" height="73.8"/>
		
			<text transform="matrix(1 0 0 1 29.8992 449.8227)" fill="#FFFFFF" font-family="'FuturaPT-Heavy'" font-size="76" letter-spacing="4">Grid System</text>
		<rect x="15.4" y="301.2" fill="none" width="493" height="72.7"/>
		<text id="The_Freindliest" transform="matrix(1 0 0 1 33.4483 361.1929)" display="none"><tspan x="0" y="0" display="inline" font-family="'FuturaPT-Heavy'" font-size="72">T</tspan><tspan x="33.1" y="0" display="inline" font-family="'FuturaPT-Heavy'" font-size="70">he F</tspan><tspan x="161.5" y="0" display="inline" font-family="'FuturaPT-Heavy'" font-size="70" letter-spacing="1">r</tspan><tspan x="190.1" y="0" display="inline" font-family="'FuturaPT-Heavy'" font-size="70">eindliest</tspan></text>
	</g>
	<g>
		<g>
			<path d="M56.3,318.5v38.7H45.2v-38.7H34.8v-9.4h32v9.4H56.3z"/>
			<path d="M71.5,306.2h10.1v23.5c1.3-1.5,2.6-2.6,3.8-3.2c2.1-1.1,3.9-1.3,6.1-1.3c2.4,0,6.1,0.4,8.8,3.2c2.9,2.9,3.1,6.7,3.1,9.1
				v19.8H93.3v-16c0-2.2-0.1-4.7-1.7-6.2c-0.9-0.9-2.5-1.4-3.9-1.4c-2.2,0-3.4,1-4,1.5c-2,2-2.1,5-2.1,6.5v15.6H71.5V306.2z"/>
			<path d="M141.7,343.3h-23.3c0,1.7,0.6,3.9,1.9,5.3c1.5,1.7,3.6,2,5.2,2c1.5,0,3-0.3,4.1-0.9c0.1-0.1,1.3-0.8,2.2-2.6l9.5,1
				c-1.4,4.4-4.2,6.7-6,7.8c-3,1.8-6.4,2.3-9.9,2.3c-4.7,0-8.8-0.8-12.5-4.5c-2.7-2.7-4.7-6.9-4.7-12c0-4.5,1.6-9.1,4.8-12.3
				c3.8-3.8,8.5-4.5,12-4.5s8.5,0.6,12.4,4.7c3.7,3.9,4.4,8.8,4.4,12.7V343.3z M132.4,337.3c-0.1-0.3-0.6-2.2-2-3.6
				c-1.1-1-2.7-1.8-4.8-1.8c-2.6,0-4.1,1-5.1,2c-0.8,0.8-1.5,2-1.8,3.4H132.4z"/>
			<path d="M191.4,319.6h-15.1v9h14v9.1h-14v19.5h-10.8v-46.7h25.9V319.6z"/>
			<path d="M198.1,326h10.1v4.9c0.9-1.8,2.3-3.4,3.9-4.3c1.7-1,3.4-1.3,5.4-1.3c1.3,0,2.2,0.1,3.3,0.5l-0.6,9.5
				c-1.3-0.7-2.8-1.1-4.6-1.1c-2.2,0-3.8,0.8-5,2.1c-2.2,2.4-2.5,5.7-2.5,8.4v12.7h-10.1V326z"/>
			<path d="M279.2,343.3h-23.3c0,1.7,0.6,3.9,1.9,5.3c1.5,1.7,3.6,2,5.2,2c1.5,0,3-0.3,4.1-0.9c0.1-0.1,1.3-0.8,2.2-2.6l9.5,1
				c-1.4,4.4-4.2,6.7-6,7.8c-3,1.8-6.4,2.3-9.9,2.3c-4.7,0-8.8-0.8-12.5-4.5c-2.7-2.7-4.7-6.9-4.7-12c0-4.5,1.6-9.1,4.8-12.3
				c3.8-3.8,8.5-4.5,12-4.5s8.5,0.6,12.4,4.7c3.7,3.9,4.4,8.8,4.4,12.7V343.3z M269.9,337.3c-0.1-0.3-0.6-2.2-2-3.6
				c-1.1-1-2.7-1.8-4.8-1.8c-2.6,0-4.1,1-5.1,2c-0.8,0.8-1.5,2-1.8,3.4H269.9z"/>
			<path d="M233.8,306.8c3.3,0,5.9,2.6,5.9,5.9c0,3.3-2.6,5.9-5.9,5.9c-3.3,0-5.9-2.6-5.9-5.9C228,309.4,230.5,306.8,233.8,306.8z
				 M238.9,326v31.2h-10.1V326H238.9z"/>
			<path d="M284.4,326h10.1v3.7c3.1-3.9,6.7-4.6,9.7-4.6c2.7,0,6.3,0.5,9,3.2c2.9,2.9,3.2,6.7,3.2,9.2v19.7h-10.1v-16
				c0-2-0.1-4.6-1.7-6.2c-0.8-0.8-2-1.4-3.8-1.4c-2.1,0-3.4,0.8-4.2,1.7c-1.7,1.7-2,3.9-2,6v16h-10.1V326z"/>
			<path d="M358.1,357.2H348v-3.8c-1.5,2.2-4.3,4.8-9.9,4.8c-4.6,0-8-1.5-10.7-4.3c-3.2-3.2-4.9-7.7-4.9-12.5
				c0-5.2,1.9-9.5,4.9-12.3c2.7-2.6,6.6-4.2,10.9-4.2c3.4,0,7.2,1.1,9.7,4.6v-23.3h10.1V357.2z M335.3,335.7c-1.5,1.4-2.5,3.4-2.5,6
				c0,2.3,1,4.3,2.5,5.7c1.5,1.5,3.5,2.2,5.2,2.2c1.9,0,4.1-0.8,5.7-2.3c1.2-1.1,2.3-3,2.3-5.6c0-2.7-1.1-4.5-2.2-5.7
				c-1.6-1.7-3.5-2.3-5.7-2.3C338.7,333.6,336.9,334.2,335.3,335.7z"/>
			<path d="M376.6,306.2v51h-10.1v-51H376.6z"/>
			<path d="M390.4,306.8c3.3,0,5.9,2.6,5.9,5.9c0,3.3-2.6,5.9-5.9,5.9c-3.3,0-5.9-2.6-5.9-5.9C384.5,309.4,387.1,306.8,390.4,306.8z
				 M395.5,326v31.2h-10.1V326H395.5z"/>
			<path d="M436,343.3h-23.3c0,1.7,0.6,3.9,1.9,5.3c1.5,1.7,3.6,2,5.2,2c1.5,0,3-0.3,4.1-0.9c0.1-0.1,1.3-0.8,2.2-2.6l9.5,1
				c-1.4,4.4-4.2,6.7-6,7.8c-3,1.8-6.4,2.3-9.9,2.3c-4.7,0-8.8-0.8-12.5-4.5c-2.7-2.7-4.7-6.9-4.7-12c0-4.5,1.6-9.1,4.8-12.3
				c3.8-3.8,8.5-4.5,12-4.5c3.5,0,8.5,0.6,12.4,4.7c3.7,3.9,4.4,8.8,4.4,12.7V343.3z M426.7,337.3c-0.1-0.3-0.6-2.2-2-3.6
				c-1.1-1-2.7-1.8-4.8-1.8c-2.6,0-4.1,1-5.1,2c-0.8,0.8-1.5,2-1.8,3.4H426.7z"/>
			<path d="M461.4,334c-1.5-0.9-3.6-1.8-5.5-1.8c-1.1,0-2.2,0.3-2.9,0.9c-0.3,0.3-0.6,0.9-0.6,1.4c0,0.7,0.5,1.1,1,1.4
				c0.7,0.4,1.8,0.6,3,1l2.7,0.8c1.8,0.6,3.6,1.3,5.2,2.7c1.8,1.7,2.5,3.6,2.5,6c0,4.1-1.8,6.8-3.2,8.2c-3.1,3.1-6.9,3.6-10.2,3.6
				c-4.2,0-8.8-0.9-12.8-4.5l4.3-6.8c1,0.8,2.4,1.8,3.4,2.3c1.4,0.7,2.9,1,4.2,1c0.6,0,2.2,0,3.2-0.7c0.6-0.5,1.1-1.3,1.1-2
				c0-0.6-0.2-1.3-1.1-1.8c-0.7-0.4-1.6-0.7-3.1-1.1l-2.5-0.8c-1.8-0.6-3.7-1.5-5-2.9c-1.5-1.5-2.2-3.3-2.2-5.7c0-3,1.2-5.5,3-7.2
				c2.8-2.6,6.6-3.2,9.5-3.2c4.6,0,7.8,1.2,10.4,2.7L461.4,334z"/>
			<path d="M483,334.1v23.1h-10.1v-23.1h-3.5V326h3.5v-10.1H483V326h6.2v8.1H483z"/>
		</g>
	</g>
	<g>
		<path d="M107.8,504.9c4.4-1.2,7.7-0.7,9.9,1c2.2,1.8,3.3,4.7,3.4,8.7c0.5,21.9-25.6,51.5-50.8,51.3c-8.7-0.1-18.6-5.4-19.6-22.4
			c-1.3-23.8,35.3-50.7,56.5-53.7c5.2-0.8,10.7,7,10.7,8.8c0,2.3-3.7,3.3-5.4,3.9c-1.8,0.7-3.3,1.5-4.8,2.4L107.8,504.9z
			 M75.6,529.8c-1.4,0-1.4-2.1-1.5-3.1c-6.2,6.2-12.2,15-12.2,24c0,3.8,1.7,7.1,5.8,7.1c6.2,0,15.7-4.6,20.4-8.6
			c14.7-12.5,23.1-26,23.4-34c0.1-2.6-1.4-5.4-4.3-5.4c-9.7,0-23,9.1-28.2,16.9C78.3,527.7,76.9,529.8,75.6,529.8z"/>
		<path d="M170.9,543.5l0.9,4.8c-5.8,5.2-17.2,18.7-25.2,18.7c-4.2,0-6.2-3.5-6.2-7.3c0-6.6,5.9-13.9,9.5-18.9l-0.2-0.2
			c-6.4,4.7-12,10.5-16.9,16.8c-1.7,2.1-5.7,7.5-8.7,7.5c-4.8,0-6-6.9-6.2-10.7c-0.3-7.6,6.6-18.7,13-24.1c1.4-1.2,2.4-1.3,4.3-1.3
			c6.6,0.2,6,1.8,6,2.4c0,4.3-13.9,15.4-13.9,18c0,0.7,0.6,1.2,1.2,1.2c0.8,0,1.8-1,2.2-1.5c8.8-11.2,29-24.8,32.2-24.8
			c0.4,0,1.1,0.5,1.8,2.1c0.7,1.7,1.3,3.6,1.7,5.9c0,4.3-13.5,12.6-13.5,20.2c0,1,0.9,2,2,2c2.6,0,7.5-3.8,9.5-5.5L170.9,543.5z"/>
		<path d="M288,506.2c-7.2,2.4-13.5,6.8-15.4,7.2c-0.4,0.1-1.2-0.4-1.2-1.1c0-1.5,5.5-6.2,7.6-7.8c-26.1-0.2-41.1,10.5-40.5,14.3
			c0.3,1.8-0.3,5,35,4.2c1.1,0,7.4-0.1,7.4,2.4c0,2-2.5,5.9-4.1,7.2c-1.7,1.4-8.2,2.5-10.5,2.9c-28.2,4.6-39.8,17-39.8,21
			c0,2,3.3,3.3,9.2,3.5c6,0.3,14.8-0.4,26-3.9c7.9-2.4,14.8-7.6,22.1-11.7c0.5,7.9,0,12.3-6.4,17.6c-3.7,3.2-18,13-40.6,12.5
			c-5.2-0.1-10.2-1.1-15.1-2.4c-4.7-1.3-7.7-8-7.7-12.4c0-7.4,9.8-21.5,42.1-29.5v-0.3c-25-0.8-30.1-6.5-30.1-12.7
			c0-10.8,15.9-27.6,52.3-27.6c3.5,0,13.9-0.3,15.5,3.3l0.2,4.6C294.4,503.8,294.2,504.3,288,506.2z"/>
		<path d="M309.1,557.8c-2.1,1.7-9.1,7.4-11.7,7.4c-3.1,0-9.5-7.3-9.7-13c-0.4-13.8,28.2-27.8,40.9-28.2c5.1-0.1,7.2,4,7.2,5.3
			c0,1.3-2.9,2.4-3.8,2.8c2.1,0.9,3.2,2.1,3.2,4.5c0,3.5-9.6,11.2-9.6,16.4c0,1.9,1.6,2.6,3.4,2.6c4.6,0,10.9-5.6,15.6-8.8l0.9,4.1
			c-4.7,5.4-19.5,17.2-24.9,17.2c-3.6,0-5.3-2.6-5.3-5.8c0-3.5,2.6-9.3,4.1-12.3l-0.2-0.2L309.1,557.8z M295.8,555
			c0.1,0.5,0.5,2.5,2.2,2.2c2.2-0.4,5.6-0.1,27.4-22.1l-0.2-0.2C299,542.9,295.8,549.6,295.8,555z"/>
		<path d="M354.7,541.4c-3.9,6-8.5,8.9-13.2,13.6l-0.4-4.8c2.9-2.3,5.2-5.1,7.3-8c-2.3-0.2-3-1.1-3-3.4c0-7.9,11.2-15.8,13.9-15.8
			c1.1,0,2,0.9,2,1.9c0,1.1-0.3,2.1-0.8,3.1c10.3-1.4,16.4-2.8,17.5-1.4c1.7,2.1,2.4,3.8,2.6,5.8c0,3.4-2.1,5.1-4.6,7.1
			c-3.2,2.8-8.6,8.1-8.6,12.5c0,1.8,1.8,3.1,3.4,3.1c4.7,0,11.7-7.1,15.3-9.9l0.8,4.1c-4.2,4.7-16.8,16.9-23.1,16.9
			c-4.6,0-7.5-4.3-7.5-8.5c0-7.5,5.7-13.3,10.1-18.6l-0.2-0.2L354.7,541.4z"/>
		<path d="M423.4,519.4c-5.2,10.5-6,14.5-18.1,13.8c-3.7,4.8-10,13.9-10,20.5c0,2.4,0.8,3.9,3.3,3.9c3.5,0,7.5-3.3,18.9-11.4
			l0.5,4.8c-6.5,5.9-18.4,17.7-27.7,17.7c-4.3,0-6.9-3-6.9-7.4c0-3.6,1.4-7.8,2.9-11L386,550l-5.6,4.5l-1.2-4.2
			c6.6-5.1,12.6-10.7,16.7-17.6c-6.7,0-4.6-0.4-10.5,0.4l1.2-2c5.9-9.7,6.8-11.4,18.6-11.9c3.3-4.5,5.7-9.7,12.1-9.7
			c1.4,0,3.5,0.3,3.5,2.1c0,2-3.2,5.6-4.3,7.2L423.4,519.4z"/>
		<path d="M424.3,551.4c5.4-4.3,25.4-21.9,31.5-21.9c2.6,0,5.3,2.8,5.3,5.3c0,2.1-4.4,6.9-5.7,8.5c-6.8,8.2-6.5,8.6-6.5,9.7
			c0,1.4,1.1,2.3,2.4,2.3c3.6,0,11.7-5.9,14.9-8l0.5,4.5c-5.1,3.9-18.4,14.6-24.4,14.6c-3.3,0-5.1-2.9-5.1-5.8
			c0-6.9,7.6-15.3,11.6-20.5l-0.2-0.2c-18.8,12.9-24.3,24.5-27.8,24.5c-3.8,0-4.4-8.6-4.4-11.1c0-7.6,2.9-12.9,6.7-19.1
			c13-21.5,34.9-40.7,38.6-40.7c1.8,0,4.7,0.8,4.7,3c0,7.5-35,43.8-42,50.7V551.4z"/>
	</g>
</g>
</svg>
