<?xml version="1.0" encoding="utf-8"?>
<!-- Generator: Adobe Illustrator 17.1.0, SVG Export Plug-In . SVG Version: 6.00 Build 0)  -->
<!DOCTYPE svg PUBLIC "-//W3C//DTD SVG 1.1//EN" "http://www.w3.org/Graphics/SVG/1.1/DTD/svg11.dtd" [
	<!ENTITY ns_extend "http://ns.adobe.com/Extensibility/1.0/">
	<!ENTITY ns_ai "http://ns.adobe.com/AdobeIllustrator/10.0/">
	<!ENTITY ns_graphs "http://ns.adobe.com/Graphs/1.0/">
	<!ENTITY ns_vars "http://ns.adobe.com/Variables/1.0/">
	<!ENTITY ns_imrep "http://ns.adobe.com/ImageReplacement/1.0/">
	<!ENTITY ns_sfw "http://ns.adobe.com/SaveForWeb/1.0/">
	<!ENTITY ns_custom "http://ns.adobe.com/GenericCustomNamespace/1.0/">
	<!ENTITY ns_adobe_xpath "http://ns.adobe.com/XPath/1.0/">
]>
<svg version="1.1" id="Layer_1" xmlns:x="&ns_extend;" xmlns:i="&ns_ai;" xmlns:graph="&ns_graphs;"
	 xmlns="http://www.w3.org/2000/svg" xmlns:xlink="http://www.w3.org/1999/xlink" x="0px" y="0px"
	 viewBox="0 -276.495 1495.181 1364.022" enable-background="new 0 -276.495 1495.181 1364.022" xml:space="preserve">
<metadata>
	<sfw  xmlns="&ns_sfw;">
		<slices></slices>
		<sliceSourceBounds  width="1042.44" height="922.414" bottomLeftOrigin="true" x="214.696" y="-441.916"></sliceSourceBounds>
	</sfw>
</metadata>
<g>
	<g>
		<path fill="none" stroke="#F7931E" stroke-width="12.4368" stroke-miterlimit="10" d="M663.535,142.523
			c29.93-51.832,104.743-51.832,134.673,0l129.003,223.442l129.003,223.442c29.93,51.832-7.483,116.628-67.338,116.628H730.862
			H472.854c-59.852,0-97.26-64.796-67.338-116.628l129.003-223.442L663.535,142.523z"/>
		<path fill="#F7931E" d="M730.87,103.641c26.186,0,52.369,12.959,67.338,38.873l129.003,223.442l129.003,223.442
			c29.93,51.832-7.483,116.628-67.338,116.628H730.862H472.854c-59.852,0-97.26-64.796-67.338-116.628l129.003-223.442
			l129.003-223.442C678.496,116.6,704.687,103.641,730.87,103.641 M730.87-1.12c-65.983,0-125.074,34.114-158.062,91.256
			L443.798,313.583L314.795,537.025c-32.995,57.142-32.995,125.377,0,182.519c32.995,57.142,92.082,91.256,158.062,91.256H730.87
			h258.013c65.983,0,125.075-34.114,158.062-91.256c32.995-57.142,32.995-125.377,0-182.519l-129.003-223.442L888.94,90.141
			C855.939,32.994,796.853-1.12,730.87-1.12L730.87-1.12z"/>
		<path fill="#231F20" stroke="#F7931E" stroke-width="21.3203" stroke-miterlimit="10" d="M730.87,103.641
			c26.186,0,52.369,12.959,67.338,38.873l129.003,223.442l129.003,223.447c29.93,51.832-7.483,116.628-67.338,116.628H730.862
			H472.854c-59.852,0-97.26-64.796-67.338-116.628l129.003-223.447l129.003-223.442C678.496,116.6,704.687,103.641,730.87,103.641
			 M730.87,11.975c-61.247,0-116.099,31.664-146.721,84.709L455.138,320.132L326.135,543.579
			c-30.625,53.042-30.625,116.378,0,169.423c30.625,53.042,85.475,84.709,146.721,84.709H730.87h258.013
			c61.247,0,116.099-31.664,146.721-84.709c30.625-53.042,30.625-116.378,0-169.423l-129.003-223.447L877.592,96.69
			C846.97,43.645,792.12,11.975,730.87,11.975L730.87,11.975z"/>
	</g>
	<g>
		<g>
			<circle fill="#F7931E" cx="730.87" cy="51.065" r="88.377"/>
		</g>
		<g>
			<path fill="#00CFFF" d="M730.87,182.628c-72.542,0-131.563-59.018-131.563-131.563S658.325-80.498,730.87-80.498
				S862.433-21.48,862.433,51.065C862.433,123.607,803.415,182.628,730.87,182.628z M730.87-37.312
				c-48.73,0-88.374,39.647-88.374,88.377s39.644,88.374,88.374,88.374c48.73,0,88.377-39.644,88.377-88.374
				S779.6-37.312,730.87-37.312z"/>
		</g>
		<g>
			<path fill="#FFFFFF" d="M730.87,165.351c-63.017,0-114.286-51.269-114.286-114.286c0-63.02,51.269-114.289,114.286-114.289
				c63.02,0,114.289,51.269,114.289,114.289C845.159,114.082,793.89,165.351,730.87,165.351z M730.87-54.586
				c-58.255,0-105.651,47.393-105.651,105.651c0,58.255,47.396,105.651,105.651,105.651c58.255,0,105.651-47.393,105.651-105.651
				C836.521-7.193,789.125-54.586,730.87-54.586z"/>
		</g>
	</g>
	<g>
		<g>
			<circle fill="#F7931E" cx="1125.572" cy="706.035" r="88.377"/>
		</g>
		<g>
			<path fill="#00CFFF" d="M1125.572,837.598c-72.542,0-131.563-59.018-131.563-131.563s59.018-131.563,131.563-131.563
				s131.563,59.018,131.563,131.563C1257.135,778.58,1198.117,837.598,1125.572,837.598z M1125.572,617.658
				c-48.73,0-88.374,39.647-88.374,88.377c0,48.73,39.644,88.374,88.374,88.374c48.73,0,88.377-39.644,88.377-88.374
				C1213.949,657.305,1174.302,617.658,1125.572,617.658z"/>
		</g>
		<g>
			<path fill="#FFFFFF" d="M1125.572,820.324c-63.017,0-114.286-51.269-114.286-114.286c0-63.02,51.269-114.289,114.286-114.289
				c63.02,0,114.289,51.269,114.289,114.289C1239.861,769.053,1188.592,820.324,1125.572,820.324z M1125.572,600.384
				c-58.255,0-105.651,47.396-105.651,105.651c0,58.255,47.396,105.651,105.651,105.651c58.255,0,105.651-47.393,105.651-105.651
				C1231.223,647.78,1183.827,600.384,1125.572,600.384z"/>
		</g>
	</g>
	<g>
		<g>
			<circle fill="#F7931E" cx="346.259" cy="710.353" r="88.377"/>
		</g>
		<g>
			<path fill="#00CFFF" d="M346.259,841.916c-72.542,0-131.563-59.018-131.563-131.563S273.714,578.79,346.259,578.79
				s131.563,59.018,131.563,131.563S418.804,841.916,346.259,841.916z M346.259,621.979c-48.73,0-88.374,39.647-88.374,88.377
				c0,48.73,39.644,88.374,88.374,88.374s88.377-39.644,88.377-88.374C434.636,661.626,394.989,621.979,346.259,621.979z"/>
		</g>
		<g>
			<path fill="#FFFFFF" d="M346.259,824.642c-63.017,0-114.286-51.269-114.286-114.286c0-63.02,51.269-114.289,114.286-114.289
				c63.02,0,114.289,51.269,114.289,114.289C460.548,773.373,409.279,824.642,346.259,824.642z M346.259,604.702
				c-58.255,0-105.651,47.396-105.651,105.651c0,58.255,47.393,105.651,105.651,105.651S451.91,768.608,451.91,710.353
				C451.91,652.098,404.514,604.702,346.259,604.702z"/>
		</g>
	</g>
	
		<line fill="none" stroke="#00CFFF" stroke-width="16.8786" stroke-miterlimit="10" x1="730.87" y1="180.054" x2="730.87" y2="448.819"/>
	
		<line fill="none" stroke="#00CFFF" stroke-width="16.8786" stroke-miterlimit="10" x1="730.87" y1="448.819" x2="1030.523" y2="640.473"/>
	
		<line fill="none" stroke="#00CFFF" stroke-width="16.8786" stroke-miterlimit="10" x1="730.87" y1="448.819" x2="446.076" y2="645.454"/>
</g>
</svg>
