<?xml version="1.0" encoding="utf-8"?>
<!-- Generator: Adobe Illustrator 17.1.0, SVG Export Plug-In . SVG Version: 6.00 Build 0)  -->
<!DOCTYPE svg PUBLIC "-//W3C//DTD SVG 1.1//EN" "http://www.w3.org/Graphics/SVG/1.1/DTD/svg11.dtd" [
	<!ENTITY ns_extend "http://ns.adobe.com/Extensibility/1.0/">
	<!ENTITY ns_ai "http://ns.adobe.com/AdobeIllustrator/10.0/">
	<!ENTITY ns_graphs "http://ns.adobe.com/Graphs/1.0/">
	<!ENTITY ns_vars "http://ns.adobe.com/Variables/1.0/">
	<!ENTITY ns_imrep "http://ns.adobe.com/ImageReplacement/1.0/">
	<!ENTITY ns_sfw "http://ns.adobe.com/SaveForWeb/1.0/">
	<!ENTITY ns_custom "http://ns.adobe.com/GenericCustomNamespace/1.0/">
	<!ENTITY ns_adobe_xpath "http://ns.adobe.com/XPath/1.0/">
]>
<svg version="1.1" id="Layer_1" xmlns:x="&ns_extend;" xmlns:i="&ns_ai;" xmlns:graph="&ns_graphs;"
	 xmlns="http://www.w3.org/2000/svg" xmlns:xlink="http://www.w3.org/1999/xlink" x="0px" y="0px" viewBox="0 0 1495.18 1364.02"
	 enable-background="new 0 0 1495.18 1364.02" xml:space="preserve">
<metadata>
	<sfw  xmlns="&ns_sfw;">
		<slices></slices>
		<sliceSourceBounds  width="986.086" height="986.086" bottomLeftOrigin="true" x="254.547" y="-728.816"></sliceSourceBounds>
	</sfw>
</metadata>
<g>
	<g>
		<path fill="#010101" stroke="#F7931E" stroke-width="18.1343" stroke-miterlimit="10" d="M747.59,151.797
			c-267.294,0-483.976,216.682-483.976,483.976s216.682,483.976,483.976,483.976s483.976-216.682,483.976-483.976
			S1014.877,151.797,747.59,151.797z M975.34,967.167c-11.271,19.516-32.086,31.537-54.62,31.537H574.46
			c-22.534,0-43.357-12.021-54.62-31.537L346.71,667.303c-11.263-19.516-11.263-43.559,0-63.075l173.13-299.864
			c11.263-19.516,32.086-31.537,54.62-31.537h346.253c22.534,0,43.357,12.021,54.62,31.537l173.13,299.864
			c11.263,19.516,11.263,43.559,0,63.075L975.34,967.167z"/>
		<g>
			<path fill="#010101" stroke="#F7931E" stroke-width="18.1343" stroke-miterlimit="10" d="M747.59,872.938
				c-130.777,0-237.172-106.395-237.172-237.172S616.806,398.594,747.59,398.594s237.172,106.395,237.172,237.172
				S878.367,872.938,747.59,872.938z"/>
			<path fill="#00CFFF" stroke="#F7931E" stroke-width="18.1343" stroke-miterlimit="10" d="M747.59,463.574
				c94.944,0,172.191,77.247,172.191,172.191S842.534,807.957,747.59,807.957S575.399,730.71,575.399,635.766
				S652.639,463.574,747.59,463.574 M747.59,333.613c-166.878,0-302.153,135.275-302.153,302.153S580.713,937.918,747.59,937.918
				s302.153-135.282,302.153-302.153S914.46,333.613,747.59,333.613L747.59,333.613z"/>
		</g>
		<path fill="#F26724" stroke="#F7931E" stroke-width="18.1343" stroke-miterlimit="10" d="M808.304,725.468
			c0.043,11.646-8.036,21.119-18.05,21.155l-86.93,0.332c-10.014,0.036-18.166-9.372-18.209-21.018l-0.686-179.874
			c-0.043-11.646,8.036-21.119,18.05-21.155l86.93-0.332c10.014-0.036,18.166,9.372,18.209,21.018L808.304,725.468z"/>
	</g>
	<g>
		<path fill="none" stroke="#F7931E" stroke-width="18.1343" d="M747.59,151.797c-267.294,0-483.976,216.682-483.976,483.976
			s216.682,483.976,483.976,483.976s483.976-216.682,483.976-483.976S1014.877,151.797,747.59,151.797z M975.34,967.167
			c-11.271,19.516-32.086,31.537-54.62,31.537H574.46c-22.534,0-43.357-12.021-54.62-31.537L346.71,667.303
			c-11.263-19.516-11.263-43.559,0-63.075l173.13-299.864c11.263-19.516,32.086-31.537,54.62-31.537h346.253
			c22.534,0,43.357,12.021,54.62,31.537l173.13,299.864c11.263,19.516,11.263,43.559,0,63.075L975.34,967.167z"/>
		<g>
			<path fill="none" stroke="#F7931E" stroke-width="18.1343" d="M747.59,463.574c94.944,0,172.191,77.247,172.191,172.191
				S842.534,807.957,747.59,807.957S575.399,730.71,575.399,635.766S652.639,463.574,747.59,463.574 M747.59,333.613
				c-166.878,0-302.153,135.275-302.153,302.153S580.713,937.918,747.59,937.918s302.153-135.282,302.153-302.153
				S914.46,333.613,747.59,333.613L747.59,333.613z"/>
		</g>
		<path fill="none" stroke="#F7931E" stroke-width="18.1343" d="M808.304,725.468c0.043,11.646-8.036,21.119-18.05,21.155
			l-86.93,0.332c-10.014,0.036-18.166-9.372-18.209-21.018l-0.686-179.874c-0.043-11.646,8.036-21.119,18.05-21.155l86.93-0.332
			c10.014-0.036,18.166,9.372,18.209,21.018L808.304,725.468z"/>
	</g>
</g>
</svg>
